<svg xmlns="http://www.w3.org/2000/svg"  viewBox="0 0 48 48" width="50px" height="50px"><path fill="#9fdadf" d="M41.563,38.542c1.597-0.433,3.009-2.374,3.501-3.954c0.704-2.259,0.674-4.741-0.085-6.983 s-2.603-3.845-4.535-5.212c-1.047-0.741-3.01-1.797-4.478-2.203l-21.46,8.584c-1.132,1.834-0.447,6.363-0.241,6.79 c0.664,1.371,1.28,2.354,2.356,3.431c1.885,1.888,3.977,2.029,6.582,2.601c2.948,0.648,6.285,1.202,9.109,0.655 c0.963-0.187,1.892-0.463,2.852-0.663c0.49,0.431,1.185,0.687,1.784,0.946c2.655,1.15,5.572,1.079,8.475,0.988 C43.18,43.017,41.581,40.84,41.563,38.542z"/><path d="M34.294,32.035c-1.735,0-3.424-0.044-5.076-0.087c-2.47-0.064-5.021-0.132-7.746-0.055 c-0.265,0.021-0.505-0.21-0.514-0.486c-0.008-0.275,0.21-0.506,0.486-0.514c2.75-0.076,5.316-0.01,7.799,0.055 c2.74,0.072,5.326,0.142,8.155,0.031c0.287,0.005,0.508,0.207,0.519,0.481c0.01,0.275-0.205,0.508-0.481,0.519 C36.37,32.02,35.323,32.035,34.294,32.035z"/><path d="M33.183,36.149c-1.799,0-3.598-0.056-5.362-0.109c-2.09-0.064-4.25-0.131-6.355-0.103c-0.31,0.001-0.504-0.218-0.507-0.493 c-0.004-0.276,0.217-0.503,0.493-0.507c2.125-0.027,4.3,0.038,6.4,0.103c2.902,0.091,5.903,0.182,8.809,0.023 c0.298-0.016,0.511,0.196,0.526,0.472s-0.196,0.512-0.472,0.526C35.546,36.126,34.364,36.149,33.183,36.149z"/><path fill="#d6e5e5" d="M7.346,26.086c0.393,1.107-0.507,2.361-1.277,3.247s-1.544,1.485-2.522,2.135 c2.844,0.122,5.435-0.11,7.918-1.402c0.675-0.351,1.326-0.758,2.042-1.015s1.272-0.41,2.011-0.232 c3.188,0.767,6.373,0.074,9.555-0.719s6.22-2.352,8.466-4.74c1.888-2.007,3.204-4.72,2.929-7.463 c-0.227-2.268-1.498-4.305-2.985-6.033c-0.543-0.631-1.122-1.236-1.787-1.736c-0.856-0.643-1.838-1.097-2.833-1.495 C22.635,4.14,15.358,3.798,9.306,6.694C8.311,7.171,7.49,7.944,6.508,8.448c-4.695,2.406-4.237,9.302-3.483,11.623 c0.36,1.109,0.871,2.223,1.621,3.117C5.54,24.253,6.881,24.775,7.346,26.086z"/><path d="M45.532,43.032c-1.851-0.415-3.283-2.16-3.453-4.139c1.614-0.655,2.966-2.564,3.462-4.156 c0.736-2.361,0.705-4.951-0.088-7.293c-0.831-2.456-2.853-4.138-4.72-5.46c-1.05-0.743-2.873-1.722-4.343-2.185 c0.498-1.313,0.704-2.658,0.574-3.951c-0.205-2.058-1.22-4.122-3.103-6.31c-0.687-0.798-1.262-1.356-1.866-1.811 c-0.958-0.719-2.027-1.191-2.947-1.559C22.197,3.425,14.923,3.451,9.091,6.243C8.533,6.51,8.035,6.858,7.554,7.194 c-0.43,0.301-0.836,0.584-1.274,0.809c-5.037,2.582-4.497,9.862-3.73,12.222c0.437,1.344,1.013,2.448,1.714,3.284 c0.367,0.438,0.79,0.78,1.197,1.11c0.629,0.51,1.172,0.949,1.414,1.634c0.236,0.665-0.151,1.565-1.184,2.753 c-0.744,0.857-1.506,1.438-2.421,2.047c-0.18,0.12-0.263,0.342-0.204,0.551c0.058,0.208,0.244,0.355,0.46,0.365 c0.431,0.018,0.874,0.03,1.328,0.03c2.137,0,4.511-0.274,6.843-1.489c0.184-0.096,0.366-0.195,0.548-0.296 c0.481-0.263,0.935-0.511,1.418-0.685c-0.632,2.292-0.045,5.841,0.153,6.252c0.645,1.331,1.28,2.393,2.453,3.567 c1.699,1.701,3.534,2.068,5.659,2.494c0.378,0.075,0.768,0.153,1.169,0.241c2.945,0.647,6.357,1.23,9.312,0.658 c0.528-0.103,1.047-0.231,1.564-0.36c0.354-0.088,0.708-0.176,1.065-0.255c0.445,0.33,0.978,0.555,1.454,0.755l0.259,0.11 c2.062,0.893,4.299,1.075,6.437,1.075c0.768,0,1.522-0.023,2.252-0.046c0.252-0.008,0.458-0.202,0.482-0.453 C45.944,43.317,45.778,43.088,45.532,43.032z M11.764,29.337c-0.176,0.097-0.352,0.193-0.53,0.286 c-1.753,0.913-3.655,1.343-6.176,1.372c0.481-0.387,0.936-0.813,1.388-1.333c0.823-0.947,1.86-2.365,1.372-3.743 c-0.337-0.95-1.044-1.522-1.728-2.076c-0.389-0.315-0.756-0.612-1.062-0.977c-0.617-0.737-1.132-1.729-1.528-2.95 c-0.669-2.058-1.17-8.765,3.236-11.022c0.499-0.256,0.951-0.573,1.39-0.879c0.47-0.328,0.912-0.638,1.396-0.869 c2.807-1.344,5.969-2.016,9.258-2.016c3.248,0,6.621,0.655,9.897,1.967c0.859,0.344,1.854,0.782,2.718,1.431 c0.544,0.409,1.071,0.922,1.709,1.663c1.744,2.027,2.682,3.91,2.866,5.757c0.235,2.354-0.784,4.932-2.796,7.07 c-2.049,2.177-4.893,3.767-8.224,4.597c-3.305,0.824-6.286,1.448-9.316,0.719c-0.455-0.11-0.856-0.108-1.239-0.047 c-0.003,0.001-0.006,0.001-0.009,0.002c-0.356,0.058-0.697,0.167-1.049,0.293C12.776,28.782,12.262,29.064,11.764,29.337z M37.146,42.073L36.88,41.96c-0.505-0.213-1.026-0.434-1.386-0.749c-0.117-0.104-0.278-0.145-0.433-0.113 c-0.448,0.094-0.89,0.203-1.331,0.313c-0.501,0.125-1.002,0.25-1.513,0.349c-2.779,0.538-6.063-0.027-8.907-0.652 c-0.408-0.09-0.804-0.169-1.188-0.245c-2.047-0.41-3.663-0.733-5.148-2.221c-1.073-1.075-1.66-2.059-2.256-3.286 c-0.172-0.433-0.722-4.367,0.102-6.101c0.188-0.007,0.374,0.003,0.579,0.052c3.25,0.78,6.485,0.104,9.793-0.721 c0.626-0.156,1.23-0.347,1.822-0.553c0.068,0.028,0.14,0.045,0.213,0.04c0.749-0.055,2.105-0.022,3.42,0.007 c1.396,0.031,2.717,0.06,3.512,0.005c0.35-0.025,0.676-0.001,1.02,0.022c0.247,0.018,0.499,0.036,0.763,0.036 c0.2,0,0.408-0.011,0.627-0.039c0.273-0.036,0.467-0.288,0.431-0.562c-0.036-0.274-0.297-0.471-0.562-0.431 c-0.404,0.055-0.785,0.026-1.188-0.002c-0.364-0.026-0.74-0.053-1.161-0.023c-0.749,0.054-2.105,0.021-3.42-0.007 c-0.462-0.011-0.906-0.02-1.335-0.026c1.757-0.885,3.305-2.007,4.568-3.349c0.874-0.929,1.569-1.94,2.083-2.984 c1.338,0.403,3.143,1.356,4.169,2.082c1.736,1.229,3.611,2.78,4.351,4.964c0.726,2.144,0.754,4.514,0.08,6.675 c-0.462,1.483-1.769,3.244-3.154,3.62c-0.22,0.06-0.371,0.26-0.369,0.486c0.015,1.797,0.909,3.483,2.265,4.521 C41.215,43.057,39.101,42.92,37.146,42.073z"/><path d="M10.131,14.023c-0.23,0-0.438-0.16-0.488-0.396c-0.058-0.27,0.114-0.535,0.385-0.594c2.193-0.47,4.442-0.728,6.685-0.768 c0.588-0.009,1.175-0.004,1.763-0.001c0.678,0.006,1.354,0.012,2.032-0.007c0.868-0.022,1.736-0.085,2.604-0.147l3.985-0.288 c0.274-0.019,0.515,0.188,0.535,0.463c0.02,0.275-0.188,0.516-0.463,0.535l-3.929,0.283c-0.939,0.067-1.822,0.131-2.707,0.154 c-0.688,0.016-1.377,0.013-2.065,0.007c-0.579-0.004-1.157-0.009-1.737,0.001c-2.178,0.038-4.362,0.289-6.493,0.746 C10.201,14.02,10.166,14.023,10.131,14.023z"/><path d="M12.891,17.896c-0.718,0-1.435-0.007-2.15-0.021c-0.276-0.006-0.495-0.233-0.49-0.51c0.005-0.272,0.229-0.49,0.5-0.49 c0.003,0,0.006,0,0.01,0c5.511,0.108,11.076-0.199,16.538-0.908c0.266-0.037,0.524,0.158,0.561,0.432 c0.035,0.274-0.158,0.524-0.432,0.561C22.625,17.582,17.745,17.896,12.891,17.896z"/><path d="M11.436,22.643c-0.266,0-0.486-0.208-0.499-0.476c-0.014-0.275,0.198-0.51,0.475-0.523 c3.158-0.156,6.371-0.381,9.547-0.668c0.266-0.023,0.518,0.178,0.543,0.453c0.024,0.274-0.178,0.518-0.453,0.543 c-3.189,0.288-6.415,0.514-9.588,0.67C11.452,22.643,11.443,22.643,11.436,22.643z"/></svg>