<?xml version="1.0" standalone="no"?><svg xmlns="http://www.w3.org/2000/svg" viewBox="0 0 1440 320"><path fill="#0099ff" fill-opacity="1" d="M0,224L34.3,234.7C68.6,245,137,267,206,229.3C274.3,192,343,96,411,80C480,64,549,128,617,176C685.7,224,754,256,823,245.3C891.4,235,960,181,1029,149.3C1097.1,117,1166,107,1234,117.3C1302.9,128,1371,160,1406,176L1440,192L1440,0L1405.7,0C1371.4,0,1303,0,1234,0C1165.7,0,1097,0,1029,0C960,0,891,0,823,0C754.3,0,686,0,617,0C548.6,0,480,0,411,0C342.9,0,274,0,206,0C137.1,0,69,0,34,0L0,0Z"></path></svg>